<?xml version="1.0" encoding="UTF-8"?>
<!--Generator: Apple Native CoreSVG 232.5-->
<!DOCTYPE svg
PUBLIC "-//W3C//DTD SVG 1.1//EN"
       "http://www.w3.org/Graphics/SVG/1.1/DTD/svg11.dtd">
<svg version="1.1" xmlns="http://www.w3.org/2000/svg" xmlns:xlink="http://www.w3.org/1999/xlink" width="72.3047" height="101.777">
 <g>
  <rect height="101.777" opacity="0" width="72.3047" x="0" y="0"/>
  <path d="M72.3047 50.8594C72.3047 49.3945 71.7188 48.0469 70.6055 46.9922L24.1992 1.52344C23.1445 0.527344 21.8555 0 20.332 0C17.3438 0 15 2.28516 15 5.33203C15 6.79688 15.5859 8.14453 16.5234 9.14062L59.1797 50.8594L16.5234 92.5781C15.5859 93.5742 15 94.8633 15 96.3867C15 99.4336 17.3438 101.719 20.332 101.719C21.8555 101.719 23.1445 101.191 24.1992 100.137L70.6055 54.7266C71.7188 53.6133 72.3047 52.3242 72.3047 50.8594Z" fill="#7f7be7"/>
 </g>
</svg>
