<?xml version="1.0" encoding="UTF-8"?>
<svg width="183px" height="109px" viewBox="0 0 183 109" version="1.1" xmlns="http://www.w3.org/2000/svg" xmlns:xlink="http://www.w3.org/1999/xlink">
    <title>eye.exclamationmark192</title>
    <g id="页面-1" stroke="none" stroke-width="1" fill="none" fill-rule="evenodd">
        <g id="eye.exclamationmark" transform="translate(0.3516, 0.2715)" fill-rule="nonzero">
            <rect id="矩形" fill="#000000" opacity="0" x="0.394236816" y="0" width="182" height="108"></rect>
            <path d="M149.3214,35.1081 C149.2744,35.1037 149.2274,35.1035 149.1794,35.1035 C145.4164,35.1035 141.7324,36.4428 138.8574,38.9084 C126.4904,27.0542 104.7524,13.0723 80.0974,13.0723 C41.4843,13.0723 10.2539,47.0566 10.2539,54.0293 C10.2539,62.291 41.4843,94.9863 80.0974,94.9863 C90.8334,94.9863 101.0174,92.4355 110.0774,88.5302 L110.0394,88.5996 C108.6324,90.9433 107.9294,93.7558 107.9294,96.3925 C107.9294,97.4775 108.0304,98.5365 108.2264,99.5585 C99.6724,102.4955 90.2204,104.2445 80.0974,104.2445 C33.3398,104.2445 -5.68434189e-14,65.9824 -5.68434189e-14,54.0293 C-5.68434189e-14,42.0176 33.3984,3.81444 80.0974,3.81444 C111.2314,3.81444 136.0664,20.3769 149.3214,35.1081 Z M112.9684,54.0293 C112.9684,71.9004 98.3204,86.8418 80.0974,86.8418 C61.7578,86.8418 47.1093,71.9004 47.1093,54.0293 C47.1093,35.6894 61.7578,21.2168 80.0974,21.2168 C98.3204,21.2168 112.9684,35.6894 112.9684,54.0293 Z M69.082,54.0293 C69.082,60.0058 74.0034,64.9277 80.0974,64.9277 C86.1324,64.9277 91.0544,60.0058 91.0544,54.0293 C91.0544,47.9941 86.1324,43.1308 80.0974,43.1308 C74.0034,43.1308 69.082,47.9941 69.082,54.0293 Z" id="形状" fill="#7F7BE7"></path>
            <path d="M155.9764,47.1152 L181.4064,92.4668 C182.1094,93.7558 182.4604,95.0449 182.4604,96.3925 C182.4604,100.7875 179.4144,104.2445 174.5504,104.2445 L123.8084,104.2445 C118.9454,104.2445 115.8984,100.7875 115.8984,96.3925 C115.8984,95.0449 116.2504,93.7558 116.9534,92.5254 L142.3244,47.1152 C143.7894,44.4199 146.5434,43.0723 149.1794,43.0723 C151.8164,43.0723 154.4534,44.4199 155.9764,47.1152 Z M144.2574,90.3574 C144.2574,93.1113 146.4844,95.3379 149.1794,95.3379 C151.9334,95.3379 154.1014,93.1113 154.1604,90.3574 C154.1604,87.7207 151.9334,85.4355 149.1794,85.4355 C146.4844,85.4355 144.2574,87.6621 144.2574,90.3574 Z M145.1954,61.1777 L145.6644,77.9355 C145.7224,79.9277 147.1284,81.334 149.1794,81.334 C151.2304,81.334 152.6954,79.9277 152.7534,77.9355 L153.2224,61.1777 C153.2814,58.834 151.6404,57.1933 149.1794,57.1933 C146.7774,57.1933 145.1364,58.834 145.1954,61.1777 Z" id="形状" fill="#7F7BE7"></path>
        </g>
    </g>
</svg>