<?xml version="1.0" encoding="UTF-8"?>
<!--Generator: Apple Native CoreSVG 232.5-->
<!DOCTYPE svg
PUBLIC "-//W3C//DTD SVG 1.1//EN"
       "http://www.w3.org/Graphics/SVG/1.1/DTD/svg11.dtd">
<svg version="1.1" xmlns="http://www.w3.org/2000/svg" xmlns:xlink="http://www.w3.org/1999/xlink" width="119.531" height="119.59">
 <g>
  <rect height="119.59" opacity="0" width="119.531" x="0" y="0"/>
  <path d="M59.7656 116.25C76.0547 116.25 89.3555 92.168 89.3555 59.8828C89.3555 27.4219 76.1133 3.33984 59.7656 3.33984C43.418 3.33984 30.1758 27.4219 30.1758 59.8828C30.1758 92.168 43.4766 116.25 59.7656 116.25ZM59.7656 10.4297C71.25 10.4297 81.5039 33.2812 81.5039 59.8828C81.5039 86.0156 71.25 109.102 59.7656 109.102C48.2812 109.102 38.0273 86.0156 38.0273 59.8828C38.0273 33.2812 48.2812 10.4297 59.7656 10.4297ZM55.957 4.16016L55.957 115.137L63.6328 115.137L63.6328 4.16016ZM59.7656 81.7969C41.7188 81.7969 25.7227 86.543 17.5195 94.1016L23.4375 98.9648C31.1719 92.8125 43.7695 89.4727 59.7656 89.4727C75.7617 89.4727 88.3594 92.8125 96.0938 98.9648L102.012 94.1016C93.8086 86.543 77.8125 81.7969 59.7656 81.7969ZM113.848 55.8984L5.68359 55.8984L5.68359 63.5742L113.848 63.5742ZM59.7656 38.0273C77.8125 38.0273 93.8086 33.2812 102.012 25.7227L96.0938 20.8594C88.3594 26.9531 75.7617 30.3516 59.7656 30.3516C43.7695 30.3516 31.1719 26.9531 23.4375 20.8594L17.5195 25.7227C25.7227 33.2812 41.7188 38.0273 59.7656 38.0273ZM59.7656 119.531C92.4609 119.531 119.531 92.4023 119.531 59.7656C119.531 27.0703 92.4023 0 59.707 0C27.0703 0 0 27.0703 0 59.7656C0 92.4023 27.1289 119.531 59.7656 119.531ZM59.7656 111.562C31.4648 111.562 7.96875 88.0664 7.96875 59.7656C7.96875 31.4648 31.4062 7.96875 59.707 7.96875C88.0078 7.96875 111.562 31.4648 111.562 59.7656C111.562 88.0664 88.0664 111.562 59.7656 111.562Z" fill="#000000" fill-opacity="0.85"/>
 </g>
</svg>
