<?xml version="1.0" encoding="utf-8"?>
<svg version="1.1" width="108.047" height="109.277" xmlns="http://www.w3.org/2000/svg">
  <g>
    <rect height="109.277" opacity="0" width="108.047" x="0" y="0"/>
    <path d="M 93.621 14.595 C 88.57 9.545 81.441 8.753 72.974 8.753 L 34.406 8.753 C 26.088 8.753 18.959 9.545 13.907 14.595 C 8.858 19.646 8.115 26.677 8.115 34.993 L 8.115 73.612 C 8.115 82.077 8.858 89.107 13.907 94.158 C 18.959 99.209 26.088 100 34.504 100 L 72.974 100 C 81.441 100 88.57 99.209 93.621 94.158 C 98.671 89.107 99.414 82.077 99.414 73.612 L 99.414 35.142 C 99.414 26.677 98.671 19.596 93.621 14.595 Z M 91.442 33.755 L 91.442 74.948 C 91.442 80.047 90.797 85.345 87.778 88.366 C 84.808 91.336 79.46 92.03 74.36 92.03 L 33.169 92.03 C 28.069 92.03 22.72 91.336 19.702 88.366 C 16.731 85.345 16.086 80.047 16.086 74.948 L 16.086 33.904 C 16.086 28.706 16.731 23.357 19.702 20.387 C 22.72 17.368 28.117 16.723 33.316 16.723 L 74.36 16.723 C 79.46 16.723 84.808 17.418 87.778 20.387 C 90.797 23.409 91.442 28.656 91.442 33.755 Z" fill="#32ade6" style=""/>
    <path d="M 32.771 63.659 C 32.771 76.285 40.942 83.958 52.576 83.958 C 61.339 83.958 67.329 80.443 71.341 72.225 C 73.519 67.967 75.203 62.867 76.984 56.976 C 77.727 54.549 78.767 51.53 78.767 50.193 C 78.767 48.609 77.578 47.52 75.945 47.52 C 74.064 47.52 72.974 48.658 71.637 51.381 L 67.628 59.848 C 67.231 60.74 66.834 61.036 66.39 61.036 C 65.795 61.036 65.448 60.639 65.448 59.798 L 65.448 29.646 C 65.448 27.912 64.013 26.478 62.28 26.478 C 60.548 26.478 59.161 27.912 59.161 29.646 L 59.161 51.035 C 58.369 50.837 57.576 50.539 56.735 50.391 L 56.735 25.438 C 56.735 23.754 55.348 22.269 53.565 22.269 C 51.834 22.269 50.397 23.754 50.397 25.438 L 50.397 50.045 C 49.556 50.143 48.714 50.243 47.874 50.391 L 47.874 27.912 C 47.874 26.18 46.437 24.795 44.703 24.795 C 42.971 24.795 41.534 26.18 41.534 27.912 L 41.534 52.42 C 40.645 52.818 39.9 53.312 39.109 53.758 L 39.109 36.925 C 39.109 35.191 37.673 33.706 35.99 33.706 C 34.207 33.706 32.771 35.191 32.771 36.925 L 32.771 63.659 Z" fill="#32ade6" style=""/>
  </g>
</svg>