<?xml version="1.0" encoding="UTF-8"?>
<svg width="100px" height="100px" viewBox="0 0 100 100" version="1.1" xmlns="http://www.w3.org/2000/svg" xmlns:xlink="http://www.w3.org/1999/xlink">
    <title>hide_apps36</title>
    <g id="hide_apps" stroke="none" stroke-width="1" fill="none" fill-rule="evenodd">
        <g id="eye.slash" transform="translate(0.000000, 16.000000)" fill-rule="nonzero">
            <rect id="矩形" fill="#000000" opacity="0" x="0" y="0" width="100" height="68.6868687"></rect>
            <path d="M50.0183593,65.4619326 C56.8241324,65.4619326 63.0444296,64.2574681 68.7158198,62.3229843 L63.922531,57.5415301 C59.568368,58.8920582 54.9579983,59.6950346 50.0183593,59.6950346 C25.9056404,59.6950346 6.40323125,39.3282746 6.40323125,34.1818107 C6.40323125,31.6268928 13.1723456,23.1224599 23.9663687,16.6620212 L19.4292116,12.136141 C7.24480131,19.6549806 0,29.7653661 0,34.1818107 C0,41.627768 20.8196512,65.4619326 50.0183593,65.4619326 Z M50.0183593,2.90171874 C43.6517869,2.90171874 37.8705404,3.99670278 32.4918507,5.78518269 L37.3217082,10.5665921 C41.346602,9.36212757 45.4812772,8.6686616 50.0183593,8.6686616 C74.0945844,8.6686616 93.5967088,29.8383979 93.5967088,34.1818107 C93.5967088,37.1382915 87.1934176,45.0951726 77.0583078,51.3001121 L81.558971,55.7895885 C93.1216138,48.3071527 100,38.4888197 100,34.1818107 C100,26.6994497 79.5829056,2.90171874 50.0183593,2.90171874 Z M50.0183593,54.6216025 C53.2382894,54.6216025 56.2753003,53.8186262 58.9828921,52.5046513 L31.5404618,25.1299755 C30.1866659,27.8308823 29.4182709,30.8968735 29.4182709,34.1818107 C29.4548397,45.3141933 38.5657227,54.6216025 50.0183593,54.6216025 Z M68.7890323,42.175245 C69.9232654,39.7297627 70.5453101,36.9923026 70.5453101,34.1818107 C70.5453101,22.7574503 61.3978583,13.7420936 50.0183593,13.7420936 C47.1277736,13.7420936 44.4201069,14.3626025 41.9686467,15.4210781 L68.7890323,42.175245 Z M78.4850915,65.7904637 C79.5829056,66.9219711 81.3394082,66.9949282 82.473941,65.7904637 C83.6811618,64.5859992 83.5710057,62.9434932 82.473941,61.8119858 L21.2953457,0.821238592 C20.1976065,-0.273746197 18.404685,-0.273746197 17.2704519,0.821238592 C16.2093565,1.87972915 16.2093565,3.74120351 17.2704519,4.79969407 L78.4850915,65.7904637 Z" id="形状" fill="#32ade6"></path>
        </g>
    </g>
</svg>