<?xml version="1.0" encoding="UTF-8"?>
<svg width="89px" height="139px" viewBox="0 0 89 139" version="1.1" xmlns="http://www.w3.org/2000/svg" xmlns:xlink="http://www.w3.org/1999/xlink">
    <title>hourglass_2192</title>
    <g id="页面-1" stroke="none" stroke-width="1" fill="none" fill-rule="evenodd">
        <g id="hourglass_2" transform="translate(0.4098, 0.9355)" fill-rule="nonzero">
            <rect id="矩形" fill="#000000" opacity="0" x="0" y="0" width="87.8523625" height="138"></rect>
            <path d="M78.2621313,24.73247 L78.2621313,25.7286 C78.2621313,39.9668 63.3207313,54.9083 55.1175313,62.9942 C51.4261313,66.6856 51.1332313,70.7872 55.1175313,74.7715 C63.3207313,82.9161 78.2621313,97.9161 78.2621313,112.0372 L78.2621313,113.209 C78.2621313,119.4785 74.6293313,122.8185 68.7113313,122.8185 L19.1410113,122.8185 C13.2230413,122.8185 9.59023127,119.4785 9.59023127,113.209 L9.59023127,112.0372 C9.59023127,97.9161 24.5902313,82.9161 32.7347313,74.7715 C36.7777313,70.7872 36.4847313,66.6856 32.7347313,62.9942 C24.5902313,54.9083 9.59023127,39.9668 9.59023127,25.7286 L9.59023127,24.73247 C9.59023127,18.46294 13.2230413,15.0645 19.1410113,15.0645 L68.7113313,15.0645 C74.6293313,15.0645 78.2621313,18.46294 78.2621313,24.73247 Z M27.4613313,43.5997 C25.6449313,43.5997 24.8246313,45.4747 26.3480313,46.9981 C29.9808313,50.8067 35.4886313,55.6114 39.4144313,58.9512 C41.4066313,60.6504 41.9340313,61.9981 41.9340313,64.6934 L41.9340313,90.6504 C41.9340313,91.5879 41.6410313,91.8809 40.9379313,92.5254 L22.2464313,110.3379 C20.5472313,111.92 21.1332313,114.8497 23.6527313,114.8497 L64.1996313,114.8497 C66.7191313,114.8497 67.3050313,111.92 65.6058313,110.3379 L46.9144313,92.5254 C46.2113313,91.8809 45.9769313,91.5879 45.9769313,90.6504 L45.9769313,64.6934 C45.9769313,61.9981 46.4457313,60.6504 48.4379313,58.9512 C52.4222313,55.6114 57.9300313,50.8067 61.5043313,46.9981 C63.0277313,45.4747 62.2074313,43.5997 60.3910313,43.5997 L27.4613313,43.5997 Z" id="形状" fill="#7F7BE7"></path>
        </g>
    </g>
</svg>