<?xml version="1.0" encoding="UTF-8"?>
<!--Generator: Apple Native CoreSVG 175.5-->
<!DOCTYPE svg
PUBLIC "-//W3C//DTD SVG 1.1//EN"
       "http://www.w3.org/Graphics/SVG/1.1/DTD/svg11.dtd">
<svg version="1.1" xmlns="http://www.w3.org/2000/svg" xmlns:xlink="http://www.w3.org/1999/xlink" width="68.6719" height="107.871">
 <g>
  <rect height="107.871" opacity="0" width="68.6719" x="0" y="0"/>
  <path d="M9.55078 107.754L59.1211 107.754C65.0391 107.754 68.6719 104.414 68.6719 98.1445L68.6719 96.9727C68.6719 82.8516 53.7305 67.8516 45.5273 59.707C41.543 55.7227 41.8359 51.6211 45.5273 47.9297C53.7305 39.8438 68.6719 24.9023 68.6719 10.6641L68.6719 9.66797C68.6719 3.39844 65.0391 0 59.1211 0L9.55078 0C3.63281 0 0 3.39844 0 9.66797L0 10.6641C0 24.9023 15 39.8438 23.1445 47.9297C26.8945 51.6211 27.1875 55.7227 23.1445 59.707C15 67.8516 0 82.8516 0 96.9727L0 98.1445C0 104.414 3.63281 107.754 9.55078 107.754ZM14.0625 99.7852C11.543 99.7852 10.957 96.8555 12.6562 95.2734L31.3477 77.4609C32.0508 76.8164 32.3438 76.5234 32.3438 75.5859L32.3438 49.6289C32.3438 46.9336 31.8164 45.5859 29.8242 43.8867C25.8984 40.5469 20.3906 35.7422 16.7578 31.9336C15.2344 30.4102 16.0547 28.5352 17.8711 28.5352L50.8008 28.5352C52.6172 28.5352 53.4375 30.4102 51.9141 31.9336C48.3398 35.7422 42.832 40.5469 38.8477 43.8867C36.8555 45.5859 36.3867 46.9336 36.3867 49.6289L36.3867 75.5859C36.3867 76.5234 36.6211 76.8164 37.3242 77.4609L56.0156 95.2734C57.7148 96.8555 57.1289 99.7852 54.6094 99.7852Z" fill="#32ade6"/>
 </g>
</svg>
