<?xml version="1.0" encoding="UTF-8"?>
<!--Generator: Apple Native CoreSVG 232.5-->
<!DOCTYPE svg
PUBLIC "-//W3C//DTD SVG 1.1//EN"
       "http://www.w3.org/Graphics/SVG/1.1/DTD/svg11.dtd">
<svg version="1.1" xmlns="http://www.w3.org/2000/svg" xmlns:xlink="http://www.w3.org/1999/xlink" width="99.7266" height="121.465">
 <g>
  <rect height="121.465" opacity="0" width="99.7266" x="0" y="0"/>
  <path d="M48.6914 121.465C49.6289 121.465 51.1523 121.113 52.6172 120.293C85.957 101.602 97.3828 93.6914 97.3828 72.3047L97.3828 27.4805C97.3828 21.3281 94.7461 19.3945 89.7656 17.2852C82.8516 14.4141 60.5273 6.38672 53.6133 3.98438C52.0312 3.45703 50.332 3.10547 48.6914 3.10547C47.0508 3.10547 45.3516 3.57422 43.8281 3.98438C36.9141 5.97656 14.5312 14.4727 7.61719 17.2852C2.69531 19.3359 0 21.3281 0 27.4805L0 72.3047C0 93.6914 11.4844 101.543 44.7656 120.293C46.2891 121.113 47.7539 121.465 48.6914 121.465ZM48.6914 110.859C47.7539 110.859 46.8164 110.508 45.0586 109.453C17.9883 93.0469 9.31641 88.2422 9.31641 70.1367L9.31641 29.2969C9.31641 27.3047 9.66797 26.543 11.3086 25.8984C20.2148 22.3828 37.5 16.582 46.3477 13.0664C47.2852 12.6562 48.0469 12.5391 48.6914 12.5391C49.3359 12.5391 50.0977 12.7148 51.0352 13.0664C59.8828 16.582 77.0508 22.793 86.1328 25.8984C87.7148 26.4844 88.0664 27.3047 88.0664 29.2969L88.0664 70.1367C88.0664 88.2422 79.3945 92.9883 52.3242 109.453C50.625 110.508 49.6289 110.859 48.6914 110.859Z" fill="#32ade6"/>
  <path d="M27.5391 82.5586C27.5391 86.9531 29.4727 89.0039 33.5156 89.0039L63.8672 89.0039C67.9102 89.0039 69.8438 86.9531 69.8438 82.5586L69.8438 59.2383C69.8438 55.1367 68.1445 53.0859 64.6875 52.8516L64.6875 45.9375C64.6875 35.1562 58.2422 27.9492 48.6914 27.9492C39.1406 27.9492 32.6953 35.1562 32.6953 45.9375L32.6953 52.8516C29.2383 53.0859 27.5391 55.1367 27.5391 59.2383ZM38.7891 52.793L38.7891 45.293C38.7891 38.3789 42.7734 33.8672 48.6914 33.8672C54.6094 33.8672 58.5938 38.3789 58.5938 45.293L58.5938 52.793Z" fill="#32ade6"/>
 </g>
</svg>
