<?xml version="1.0" encoding="UTF-8"?>
<!--Generator: Apple Native CoreSVG 232.5-->
<!DOCTYPE svg
PUBLIC "-//W3C//DTD SVG 1.1//EN"
       "http://www.w3.org/Graphics/SVG/1.1/DTD/svg11.dtd">
<svg version="1.1" xmlns="http://www.w3.org/2000/svg" xmlns:xlink="http://www.w3.org/1999/xlink" width="97.9102" height="132.129">
 <g>
  <rect height="132.129" opacity="0" width="97.9102" x="0" y="0"/>
  <path d="M0 116.543C0 125.801 6.50391 132.012 16.2305 132.012L81.6797 132.012C91.4062 132.012 97.9102 125.801 97.9102 116.543L97.9102 15.5273C97.9102 6.26953 91.4062 0 81.6797 0L16.2305 0C6.50391 0 0 6.26953 0 15.5273ZM9.43359 114.961L9.43359 17.1094C9.43359 12.3047 12.3633 9.43359 17.4023 9.43359L80.5078 9.43359C85.4883 9.43359 88.4766 12.3047 88.4766 17.1094L88.4766 114.961C88.4766 119.766 85.4883 122.578 80.5078 122.578L17.4023 122.578C12.3633 122.578 9.43359 119.766 9.43359 114.961Z" fill="#7f7be7"/>
  <path d="M39.082 85.8984L58.9453 85.8984C62.1094 85.8984 63.6914 84.2578 63.6914 80.918L63.6914 65.6836C63.6914 63.0469 62.6953 61.5234 60.7617 60.8789L60.7617 56.8945C60.7617 48.9844 56.0156 43.5938 48.9844 43.5938C42.0117 43.5938 37.207 48.9844 37.207 56.8945L37.207 60.9375C35.332 61.5234 34.2773 63.0469 34.2773 65.6836L34.2773 80.918C34.2773 84.2578 35.918 85.8984 39.082 85.8984ZM43.0078 60.6445L43.0078 56.3672C43.0078 52.0312 45.3516 49.2188 48.9844 49.2188C52.6172 49.2188 54.9609 52.0312 54.9609 56.3672L54.9609 60.6445Z" fill="#7f7be7"/>
 </g>
</svg>
