<svg class="icon" style="width: 1em;height: 1em;vertical-align: middle;fill: currentColor;overflow: hidden;" viewBox="0 0 1024 1024" version="1.1" xmlns="http://www.w3.org/2000/svg" p-id="12352"><path d="M967.3 16.9H56.7c-12.6 0-22.9 10.2-22.9 22.9v726.5c0 12.6 10.2 22.9 22.9 22.9H433c5.9 0 11.5 2.3 15.8 6.3l208 198.4c30.5 29.1 81.1 7 80.4-35.2l-2.3-146.3c-0.2-12.8 10.1-23.2 22.9-23.2h209.7c12.6 0 22.9-10.2 22.9-22.9V39.8c-0.2-12.6-10.4-22.9-23.1-22.9z m-59.8 666.7c0 12.6-10.2 22.9-22.9 22.9h-211c-12.8 0-23.1 10.5-22.9 23.2l1.4 92c0.3 20.3-24 30.9-38.6 16.9L481.8 712.8c-4.3-4.1-9.9-6.3-15.8-6.3H139.3c-12.6 0-22.9-10.2-22.9-22.9V122.4c0-12.6 10.2-22.9 22.9-22.9h745.4c12.6 0 22.9 10.2 22.9 22.9v561.2zM512 197.1c-21.5 0-39 17.4-39 39v194.8c0 21.5 17.4 39 39 39 21.5 0 39-17.4 39-39V236.1c0-21.5-17.5-39-39-39zM512 523c-21.5 0-39 17.4-39 39 0 21.5 17.4 39 39 39 21.5 0 39-17.4 39-39 0-21.5-17.5-39-39-39z" p-id="12353" fill="#32ade6"></path></svg>