<svg class="icon" style="width: 1em;height: 1em;vertical-align: middle;overflow: hidden;" viewBox="0 0 1024 1024" version="1.1" xmlns="http://www.w3.org/2000/svg" p-id="3349"><path d="M635.4 84.5c118.8 11.9 214 83.5 234.4 206.1H801l111 165.2 111-165.2h-76.6C926.1 125.4 801.1 18.1 643.2 2.8c-21.9-1.8-42.1 17-42.1 40.8 1.4 20.5 15.5 39.2 34.3 40.9zM463.5 1H77.6C55.7 1 38.5 19.7 38.5 43.6v367.9c0 23.9 17.2 42.6 39.1 42.6h385.9c21.9 0 39.1-18.7 39.1-42.6V43.6c0-23.9-17.2-42.6-39.1-42.6zM426 372.4H115.1V82.8h311l-0.1 289.6z m-37.5 565.5c-132.8-11.9-234.4-100.5-239.1-247h73.4L111.9 525.7 1 690.9h73.4c3.1 189.1 135.9 311.7 306.3 328.8 21.9 1.7 42.2-17 42.2-40.9 0.3-20.4-14.4-37.8-34.4-40.9zM948 568.2H562c-21.9 0-39.1 18.8-39.1 42.6v369.7c0 23.8 17.1 42.5 39.1 42.5h385.9c21.9 0 39-18.7 39-42.5V610.8c0-23.8-18.7-42.6-38.9-42.6z m-37.6 371.4H599.5v-288h310.9v288z m0 0" fill="#32ade6" p-id="3350"></path></svg>