<?xml version="1.0" encoding="UTF-8"?>
<!--Generator: Apple Native CoreSVG 175.5-->
<!DOCTYPE svg
PUBLIC "-//W3C//DTD SVG 1.1//EN"
       "http://www.w3.org/Graphics/SVG/1.1/DTD/svg11.dtd">
<svg version="1.1" xmlns="http://www.w3.org/2000/svg" xmlns:xlink="http://www.w3.org/1999/xlink" width="141.914" height="130.02">
 <g>
  <rect height="130.02" opacity="0" width="141.914" x="0" y="0"/>
  <path d="M18.3984 119.004L79.3945 119.004C77.6953 116.074 76.4062 112.91 75.5859 109.57L17.5195 109.57C12.3047 109.57 9.43359 106.816 9.43359 101.367L9.43359 46.1133C9.43359 40.7227 12.3047 37.9102 17.5195 37.9102L99.1992 37.9102C104.414 37.9102 107.344 40.7227 107.344 46.1133L107.344 62.7539C109.043 62.5781 110.566 62.4609 112.148 62.4609C113.672 62.4609 115.254 62.5781 116.777 62.7539L116.777 29.2969C116.777 17.2266 110.684 11.1328 98.4375 11.1328L18.3984 11.1328C6.15234 11.1328 0 17.168 0 29.2969L0 100.84C0 112.969 6.15234 119.004 18.3984 119.004ZM46.9336 58.9453L50.3906 58.9453C52.4414 58.9453 53.1445 58.3594 53.1445 56.3086L53.1445 52.8516C53.1445 50.8008 52.4414 50.1562 50.3906 50.1562L46.9336 50.1562C44.8828 50.1562 44.1797 50.8008 44.1797 52.8516L44.1797 56.3086C44.1797 58.3594 44.8828 58.9453 46.9336 58.9453ZM66.4453 58.9453L69.8438 58.9453C71.8945 58.9453 72.5977 58.3594 72.5977 56.3086L72.5977 52.8516C72.5977 50.8008 71.8945 50.1562 69.8438 50.1562L66.4453 50.1562C64.3359 50.1562 63.6914 50.8008 63.6914 52.8516L63.6914 56.3086C63.6914 58.3594 64.3359 58.9453 66.4453 58.9453ZM85.8984 58.9453L89.3555 58.9453C91.4062 58.9453 92.0508 58.3594 92.0508 56.3086L92.0508 52.8516C92.0508 50.8008 91.4062 50.1562 89.3555 50.1562L85.8984 50.1562C83.8477 50.1562 83.1445 50.8008 83.1445 52.8516L83.1445 56.3086C83.1445 58.3594 83.8477 58.9453 85.8984 58.9453ZM27.4805 78.1055L30.9375 78.1055C32.9883 78.1055 33.6328 77.5195 33.6328 75.4688L33.6328 72.0117C33.6328 69.9609 32.9883 69.375 30.9375 69.375L27.4805 69.375C25.4297 69.375 24.7266 69.9609 24.7266 72.0117L24.7266 75.4688C24.7266 77.5195 25.4297 78.1055 27.4805 78.1055ZM46.9336 78.1055L50.3906 78.1055C52.4414 78.1055 53.1445 77.5195 53.1445 75.4688L53.1445 72.0117C53.1445 69.9609 52.4414 69.375 50.3906 69.375L46.9336 69.375C44.8828 69.375 44.1797 69.9609 44.1797 72.0117L44.1797 75.4688C44.1797 77.5195 44.8828 78.1055 46.9336 78.1055ZM66.4453 78.1055L69.8438 78.1055C71.8945 78.1055 72.5977 77.5195 72.5977 75.4688L72.5977 72.0117C72.5977 69.9609 71.8945 69.375 69.8438 69.375L66.4453 69.375C64.3359 69.375 63.6914 69.9609 63.6914 72.0117L63.6914 75.4688C63.6914 77.5195 64.3359 78.1055 66.4453 78.1055ZM27.4805 97.3242L30.9375 97.3242C32.9883 97.3242 33.6328 96.6797 33.6328 94.6289L33.6328 91.1719C33.6328 89.1211 32.9883 88.5352 30.9375 88.5352L27.4805 88.5352C25.4297 88.5352 24.7266 89.1211 24.7266 91.1719L24.7266 94.6289C24.7266 96.6797 25.4297 97.3242 27.4805 97.3242ZM46.9336 97.3242L50.3906 97.3242C52.4414 97.3242 53.1445 96.6797 53.1445 94.6289L53.1445 91.1719C53.1445 89.1211 52.4414 88.5352 50.3906 88.5352L46.9336 88.5352C44.8828 88.5352 44.1797 89.1211 44.1797 91.1719L44.1797 94.6289C44.1797 96.6797 44.8828 97.3242 46.9336 97.3242ZM66.4453 97.3242L69.8438 97.3242C71.8945 97.3242 72.5977 96.6797 72.5977 94.6289L72.5977 91.1719C72.5977 89.1211 71.8945 88.5352 69.8438 88.5352L66.4453 88.5352C64.3359 88.5352 63.6914 89.1211 63.6914 91.1719L63.6914 94.6289C63.6914 96.6797 64.3359 97.3242 66.4453 97.3242ZM112.148 130.02C128.262 130.02 141.914 116.543 141.914 100.254C141.914 83.9062 128.438 70.4883 112.148 70.4883C95.8008 70.4883 82.3828 83.9648 82.3828 100.254C82.3828 116.66 95.8008 130.02 112.148 130.02ZM98.2617 104.824C96.2109 104.824 94.5703 103.184 94.5703 101.191C94.5703 99.2578 96.2695 97.6172 98.2617 97.6172L108.809 97.6172L108.809 82.9102C108.809 80.9766 110.449 79.3945 112.441 79.3945C114.434 79.3945 116.074 80.9766 116.074 82.9102L116.074 101.191C116.074 103.242 114.492 104.824 112.441 104.824Z" fill="#32ade6"/>
 </g>
</svg>
