<?xml version="1.0" encoding="utf-8"?>
<svg version="1.1" width="123.984" height="122.871" xmlns="http://www.w3.org/2000/svg">
  <g>
    <rect height="122.871" opacity="0" width="123.984" x="0" y="0"/>
    <path d="M 90.555 24.731 L 90.555 32.358 L 82.53 32.358 L 82.53 25.18 C 82.53 19.995 79.738 17.303 74.804 17.303 L 25.004 17.303 C 20.02 17.303 17.278 19.995 17.278 25.18 L 17.278 74.729 C 17.278 79.914 20.02 82.605 25.004 82.605 L 33.429 82.605 L 33.429 90.631 L 24.905 90.631 C 14.436 90.631 9.253 85.447 9.253 75.178 L 9.253 24.731 C 9.253 14.462 14.436 9.278 24.905 9.278 L 74.953 9.278 C 85.321 9.278 90.555 14.462 90.555 24.731 Z" fill="#7f7be7" style=""/>
    <path d="M 49.081 113.71 L 99.13 113.71 C 109.498 113.71 114.731 108.526 114.731 98.257 L 114.731 47.811 C 114.731 37.541 109.498 32.358 99.13 32.358 L 49.081 32.358 C 38.613 32.358 33.429 37.492 33.429 47.811 L 33.429 98.257 C 33.429 108.526 38.613 113.71 49.081 113.71 Z" fill="#7f7be7" style=""/>
  </g>
</svg>