<?xml version="1.0" encoding="UTF-8"?>
<!--Generator: Apple Native CoreSVG 175.5-->
<!DOCTYPE svg
PUBLIC "-//W3C//DTD SVG 1.1//EN"
       "http://www.w3.org/Graphics/SVG/1.1/DTD/svg11.dtd">
<svg version="1.1" xmlns="http://www.w3.org/2000/svg" xmlns:xlink="http://www.w3.org/1999/xlink" width="119.531" height="119.59">
 <g>
  <rect height="119.59" opacity="0" width="119.531" x="0" y="0"/>
  <path d="M59.7656 119.531C92.4609 119.531 119.531 92.4023 119.531 59.7656C119.531 27.0703 92.5195 0 59.8242 0C56.7188 0 55.1953 1.875 55.1953 4.92188L55.1953 27.5977C55.1953 30.1758 56.9531 32.168 59.4727 32.168C62.0508 32.168 63.8086 30.1758 63.8086 27.5977L63.8086 4.80469L59.707 9.96094C87.4805 9.96094 109.512 32.1094 109.512 59.7656C109.512 87.4219 87.4219 109.57 59.7656 109.57C32.1094 109.57 9.90234 87.4219 9.96094 59.7656C10.0195 47.4023 14.4141 36.2109 21.7969 27.5977C23.5547 25.3125 23.6719 22.5586 21.7383 20.5078C19.8047 18.457 16.582 18.6328 14.4141 21.2109C5.50781 31.6406 0 45.1758 0 59.7656C0 92.4023 27.1289 119.531 59.7656 119.531ZM69.1406 68.2031C73.7695 63.3398 72.832 56.8359 67.2656 52.9688L36.2695 31.2891C33.3398 29.2383 30.293 32.3438 32.3438 35.2148L53.9648 66.2109C57.8906 71.7773 64.3945 72.7734 69.1406 68.2031Z" fill="#6D6AE0" />
 </g>
</svg>
